<svg xmlns="http://www.w3.org/2000/svg" xmlns:xlink="http://www.w3.org/1999/xlink" width="500" zoomAndPan="magnify" viewBox="0 0 375 374.999991" height="500" preserveAspectRatio="xMidYMid meet" version="1.0"><defs><clipPath id="92a47ce499"><path d="M 89.429688 106.832031 L 99.929688 106.832031 L 99.929688 117.332031 L 89.429688 117.332031 Z M 89.429688 106.832031 " clip-rule="nonzero"/></clipPath></defs><g clip-path="url(#92a47ce499)"><path fill="#0277b5" d="M 99.054688 106.832031 L 90.3125 106.832031 C 89.832031 106.832031 89.441406 107.226562 89.441406 107.707031 L 89.441406 116.460938 C 89.441406 116.945312 89.835938 117.332031 90.3125 117.332031 L 99.050781 117.332031 C 99.53125 117.332031 99.921875 116.941406 99.921875 116.460938 L 99.921875 107.707031 C 99.925781 107.226562 99.539062 106.832031 99.054688 106.832031 Z M 92.546875 115.496094 L 90.996094 115.496094 L 90.996094 110.839844 L 92.546875 110.839844 Z M 91.769531 110.28125 C 91.28125 110.28125 90.886719 109.886719 90.886719 109.398438 C 90.886719 108.910156 91.28125 108.515625 91.769531 108.515625 C 92.257812 108.515625 92.652344 108.910156 92.652344 109.398438 C 92.652344 109.886719 92.257812 110.28125 91.769531 110.28125 Z M 98.375 115.496094 L 96.820312 115.496094 L 96.785156 112.734375 C 96.785156 112.734375 96.820312 111.996094 96.019531 112.003906 C 95.214844 112.007812 95.105469 112.734375 95.105469 112.734375 L 95.105469 115.496094 L 93.539062 115.496094 L 93.539062 110.839844 L 95.042969 110.839844 L 95.042969 111.480469 C 95.042969 111.480469 95.105469 111.273438 95.449219 111.023438 C 95.796875 110.777344 96.371094 110.726562 96.617188 110.738281 C 96.863281 110.746094 97.199219 110.703125 97.761719 111.09375 C 98.367188 111.507812 98.382812 112.597656 98.382812 112.597656 Z M 98.375 115.496094 " fill-opacity="1" fill-rule="nonzero"/></g></svg>